<svg aria-hidden="true" style="position: absolute; width: 0; height: 0; overflow: hidden;" version="1.1" xmlns="http://www.w3.org/2000/svg" xmlns:xlink="http://www.w3.org/1999/xlink">
<defs>
<symbol id="icon-alert-circle" viewBox="0 0 24 24">
<path d="M23 12c0-3.037-1.232-5.789-3.222-7.778s-4.741-3.222-7.778-3.222-5.789 1.232-7.778 3.222-3.222 4.741-3.222 7.778 1.232 5.789 3.222 7.778 4.741 3.222 7.778 3.222 5.789-1.232 7.778-3.222 3.222-4.741 3.222-7.778zM21 12c0 2.486-1.006 4.734-2.636 6.364s-3.878 2.636-6.364 2.636-4.734-1.006-6.364-2.636-2.636-3.878-2.636-6.364 1.006-4.734 2.636-6.364 3.878-2.636 6.364-2.636 4.734 1.006 6.364 2.636 2.636 3.878 2.636 6.364zM11 8v4c0 0.552 0.448 1 1 1s1-0.448 1-1v-4c0-0.552-0.448-1-1-1s-1 0.448-1 1zM12 17c0.552 0 1-0.448 1-1s-0.448-1-1-1-1 0.448-1 1 0.448 1 1 1z"></path>
</symbol>
<symbol id="icon-alert-triangle" viewBox="0 0 24 24">
<path d="M11.148 4.374c0.073-0.123 0.185-0.242 0.334-0.332 0.236-0.143 0.506-0.178 0.756-0.116s0.474 0.216 0.614 0.448l8.466 14.133c0.070 0.12 0.119 0.268 0.128 0.434-0.015 0.368-0.119 0.591-0.283 0.759-0.18 0.184-0.427 0.298-0.693 0.301l-16.937-0.001c-0.152-0.001-0.321-0.041-0.481-0.134-0.239-0.138-0.399-0.359-0.466-0.607s-0.038-0.519 0.092-0.745zM9.432 3.346l-8.47 14.14c-0.422 0.731-0.506 1.55-0.308 2.29s0.68 1.408 1.398 1.822c0.464 0.268 0.976 0.4 1.475 0.402h16.943c0.839-0.009 1.587-0.354 2.123-0.902s0.864-1.303 0.855-2.131c-0.006-0.536-0.153-1.044-0.406-1.474l-8.474-14.147c-0.432-0.713-1.11-1.181-1.854-1.363s-1.561-0.081-2.269 0.349c-0.429 0.26-0.775 0.615-1.012 1.014zM11 9v4c0 0.552 0.448 1 1 1s1-0.448 1-1v-4c0-0.552-0.448-1-1-1s-1 0.448-1 1zM12 18c0.552 0 1-0.448 1-1s-0.448-1-1-1-1 0.448-1 1 0.448 1 1 1z"></path>
</symbol>
<symbol id="icon-arrow-left" viewBox="0 0 24 24">
<path d="M12.707 18.293l-5.293-5.293h11.586c0.552 0 1-0.448 1-1s-0.448-1-1-1h-11.586l5.293-5.293c0.391-0.391 0.391-1.024 0-1.414s-1.024-0.391-1.414 0l-7 7c-0.096 0.096-0.168 0.206-0.217 0.324-0.051 0.122-0.076 0.253-0.076 0.383 0 0.256 0.098 0.512 0.293 0.707l7 7c0.391 0.391 1.024 0.391 1.414 0s0.391-1.024 0-1.414z"></path>
</symbol>
<symbol id="icon-arrow-right" viewBox="0 0 24 24">
<path d="M11.293 5.707l5.293 5.293h-11.586c-0.552 0-1 0.448-1 1s0.448 1 1 1h11.586l-5.293 5.293c-0.391 0.391-0.391 1.024 0 1.414s1.024 0.391 1.414 0l7-7c0.092-0.092 0.166-0.202 0.217-0.324 0.101-0.245 0.101-0.521 0-0.766-0.049-0.118-0.121-0.228-0.217-0.324l-7-7c-0.391-0.391-1.024-0.391-1.414 0s-0.391 1.024 0 1.414z"></path>
</symbol>
<symbol id="icon-bookmark" viewBox="0 0 24 24">
<path d="M18.419 21.814c0.161 0.116 0.363 0.186 0.581 0.186 0.552 0 1-0.448 1-1v-16c0-0.828-0.337-1.58-0.879-2.121s-1.293-0.879-2.121-0.879h-10c-0.828 0-1.58 0.337-2.121 0.879s-0.879 1.293-0.879 2.121v16c-0.001 0.199 0.060 0.404 0.186 0.581 0.321 0.449 0.946 0.554 1.395 0.232l6.419-4.584zM18 19.057l-5.419-3.871c-0.355-0.254-0.819-0.242-1.162 0l-5.419 3.871v-14.057c0-0.276 0.111-0.525 0.293-0.707s0.431-0.293 0.707-0.293h10c0.276 0 0.525 0.111 0.707 0.293s0.293 0.431 0.293 0.707z"></path>
</symbol>

<symbol id="icon-bookmark-fill" viewBox="0 0 24 24">
<polygon points="18.419 21.814, 19.000 22.000, 20.000 21.000, 20.000 5.000, 19.121 2.879, 17.000 2.000, 7.000 2.000, 4.879 2.879, 4.000 5.000, 4.000 21.000, 4.186 21.581, 5.581 21.813, 12.000 17.229" />
</symbol>

<symbol id="icon-check" viewBox="0 0 24 24">
<path d="M19.293 5.293l-10.293 10.293-4.293-4.293c-0.391-0.391-1.024-0.391-1.414 0s-0.391 1.024 0 1.414l5 5c0.391 0.391 1.024 0.391 1.414 0l11-11c0.391-0.391 0.391-1.024 0-1.414s-1.024-0.391-1.414 0z"></path>
</symbol>
<symbol id="icon-clock" viewBox="0 0 24 24">
<path d="M23 12c0-3.037-1.232-5.789-3.222-7.778s-4.741-3.222-7.778-3.222-5.789 1.232-7.778 3.222-3.222 4.741-3.222 7.778 1.232 5.789 3.222 7.778 4.741 3.222 7.778 3.222 5.789-1.232 7.778-3.222 3.222-4.741 3.222-7.778zM21 12c0 2.486-1.006 4.734-2.636 6.364s-3.878 2.636-6.364 2.636-4.734-1.006-6.364-2.636-2.636-3.878-2.636-6.364 1.006-4.734 2.636-6.364 3.878-2.636 6.364-2.636 4.734 1.006 6.364 2.636 2.636 3.878 2.636 6.364zM11 6v6c0 0.389 0.222 0.727 0.553 0.894l4 2c0.494 0.247 1.095 0.047 1.342-0.447s0.047-1.095-0.447-1.342l-3.448-1.723v-5.382c0-0.552-0.448-1-1-1s-1 0.448-1 1z"></path>
</symbol>
<symbol id="icon-edit" viewBox="0 0 24 24">
<path d="M11 3h-7c-0.828 0-1.58 0.337-2.121 0.879s-0.879 1.293-0.879 2.121v14c0 0.828 0.337 1.58 0.879 2.121s1.293 0.879 2.121 0.879h14c0.828 0 1.58-0.337 2.121-0.879s0.879-1.293 0.879-2.121v-7c0-0.552-0.448-1-1-1s-1 0.448-1 1v7c0 0.276-0.111 0.525-0.293 0.707s-0.431 0.293-0.707 0.293h-14c-0.276 0-0.525-0.111-0.707-0.293s-0.293-0.431-0.293-0.707v-14c0-0.276 0.111-0.525 0.293-0.707s0.431-0.293 0.707-0.293h7c0.552 0 1-0.448 1-1s-0.448-1-1-1zM17.793 1.793l-9.5 9.5c-0.122 0.121-0.217 0.28-0.263 0.465l-1 4c-0.039 0.15-0.042 0.318 0 0.485 0.134 0.536 0.677 0.862 1.213 0.728l4-1c0.167-0.041 0.33-0.129 0.465-0.263l9.5-9.5c0.609-0.609 0.914-1.41 0.914-2.207s-0.305-1.598-0.914-2.207-1.411-0.915-2.208-0.915-1.598 0.305-2.207 0.914zM19.207 3.207c0.219-0.219 0.504-0.328 0.793-0.328s0.574 0.109 0.793 0.328 0.328 0.504 0.328 0.793-0.109 0.574-0.328 0.793l-9.304 9.304-2.114 0.529 0.529-2.114z"></path>
</symbol>
<symbol id="icon-loader" viewBox="0 0 24 24">
<path d="M11 2v4c0 0.552 0.448 1 1 1s1-0.448 1-1v-4c0-0.552-0.448-1-1-1s-1 0.448-1 1zM11 18v4c0 0.552 0.448 1 1 1s1-0.448 1-1v-4c0-0.552-0.448-1-1-1s-1 0.448-1 1zM4.223 5.637l2.83 2.83c0.391 0.391 1.024 0.391 1.414 0s0.391-1.024 0-1.414l-2.83-2.83c-0.391-0.391-1.024-0.391-1.414 0s-0.391 1.024 0 1.414zM15.533 16.947l2.83 2.83c0.391 0.391 1.024 0.391 1.414 0s0.391-1.024 0-1.414l-2.83-2.83c-0.391-0.391-1.024-0.391-1.414 0s-0.391 1.024 0 1.414zM2 13h4c0.552 0 1-0.448 1-1s-0.448-1-1-1h-4c-0.552 0-1 0.448-1 1s0.448 1 1 1zM18 13h4c0.552 0 1-0.448 1-1s-0.448-1-1-1h-4c-0.552 0-1 0.448-1 1s0.448 1 1 1zM5.637 19.777l2.83-2.83c0.391-0.391 0.391-1.024 0-1.414s-1.024-0.391-1.414 0l-2.83 2.83c-0.391 0.391-0.391 1.024 0 1.414s1.024 0.391 1.414 0zM16.947 8.467l2.83-2.83c0.391-0.391 0.391-1.024 0-1.414s-1.024-0.391-1.414 0l-2.83 2.83c-0.391 0.391-0.391 1.024 0 1.414s1.024 0.391 1.414 0z"></path>
</symbol>
<symbol id="icon-minus-circle" viewBox="0 0 24 24">
<path d="M23 12c0-3.037-1.232-5.789-3.222-7.778s-4.741-3.222-7.778-3.222-5.789 1.232-7.778 3.222-3.222 4.741-3.222 7.778 1.232 5.789 3.222 7.778 4.741 3.222 7.778 3.222 5.789-1.232 7.778-3.222 3.222-4.741 3.222-7.778zM21 12c0 2.486-1.006 4.734-2.636 6.364s-3.878 2.636-6.364 2.636-4.734-1.006-6.364-2.636-2.636-3.878-2.636-6.364 1.006-4.734 2.636-6.364 3.878-2.636 6.364-2.636 4.734 1.006 6.364 2.636 2.636 3.878 2.636 6.364zM8 13h8c0.552 0 1-0.448 1-1s-0.448-1-1-1h-8c-0.552 0-1 0.448-1 1s0.448 1 1 1z"></path>
</symbol>
<symbol id="icon-plus-circle" viewBox="0 0 24 24">
<path d="M23 12c0-3.037-1.232-5.789-3.222-7.778s-4.741-3.222-7.778-3.222-5.789 1.232-7.778 3.222-3.222 4.741-3.222 7.778 1.232 5.789 3.222 7.778 4.741 3.222 7.778 3.222 5.789-1.232 7.778-3.222 3.222-4.741 3.222-7.778zM21 12c0 2.486-1.006 4.734-2.636 6.364s-3.878 2.636-6.364 2.636-4.734-1.006-6.364-2.636-2.636-3.878-2.636-6.364 1.006-4.734 2.636-6.364 3.878-2.636 6.364-2.636 4.734 1.006 6.364 2.636 2.636 3.878 2.636 6.364zM8 13h3v3c0 0.552 0.448 1 1 1s1-0.448 1-1v-3h3c0.552 0 1-0.448 1-1s-0.448-1-1-1h-3v-3c0-0.552-0.448-1-1-1s-1 0.448-1 1v3h-3c-0.552 0-1 0.448-1 1s0.448 1 1 1z"></path>
</symbol>
<symbol id="icon-search" viewBox="0 0 24 24">
<path d="M16.041 15.856c-0.034 0.026-0.067 0.055-0.099 0.087s-0.060 0.064-0.087 0.099c-1.258 1.213-2.969 1.958-4.855 1.958-1.933 0-3.682-0.782-4.95-2.050s-2.050-3.017-2.050-4.95 0.782-3.682 2.050-4.95 3.017-2.050 4.95-2.050 3.682 0.782 4.95 2.050 2.050 3.017 2.050 4.95c0 1.886-0.745 3.597-1.959 4.856zM21.707 20.293l-3.675-3.675c1.231-1.54 1.968-3.493 1.968-5.618 0-2.485-1.008-4.736-2.636-6.364s-3.879-2.636-6.364-2.636-4.736 1.008-6.364 2.636-2.636 3.879-2.636 6.364 1.008 4.736 2.636 6.364 3.879 2.636 6.364 2.636c2.125 0 4.078-0.737 5.618-1.968l3.675 3.675c0.391 0.391 1.024 0.391 1.414 0s0.391-1.024 0-1.414z"></path>
</symbol>
<symbol id="icon-send" viewBox="0 0 24 24">
<path d="M22.963 2.269c0.043-0.151 0.050-0.314 0.015-0.476-0.024-0.113-0.068-0.224-0.131-0.325-0.064-0.102-0.145-0.19-0.238-0.262-0.117-0.090-0.249-0.15-0.386-0.181s-0.282-0.034-0.426-0.004c-0.042 0.009-0.085 0.021-0.126 0.035l-0.021 0.007-19.98 6.993c-0.252 0.088-0.467 0.276-0.584 0.538-0.224 0.505 0.003 1.096 0.508 1.32l8.649 3.844 3.844 8.649c0.108 0.243 0.313 0.443 0.583 0.538 0.521 0.182 1.092-0.092 1.274-0.614l6.993-19.979c0.010-0.027 0.019-0.054 0.027-0.082zM10.779 11.807l-6.068-2.696 13.483-4.72zM19.609 5.806l-4.72 13.483-2.696-6.068z"></path>
</symbol>
<symbol id="icon-smile" viewBox="0 0 24 24">
<path d="M23 12c0-3.037-1.232-5.789-3.222-7.778s-4.741-3.222-7.778-3.222-5.789 1.232-7.778 3.222-3.222 4.741-3.222 7.778 1.232 5.789 3.222 7.778 4.741 3.222 7.778 3.222 5.789-1.232 7.778-3.222 3.222-4.741 3.222-7.778zM21 12c0 2.486-1.006 4.734-2.636 6.364s-3.878 2.636-6.364 2.636-4.734-1.006-6.364-2.636-2.636-3.878-2.636-6.364 1.006-4.734 2.636-6.364 3.878-2.636 6.364-2.636 4.734 1.006 6.364 2.636 2.636 3.878 2.636 6.364zM7.2 14.6c0 0 0.131 0.173 0.331 0.383 0.145 0.153 0.338 0.341 0.577 0.54 0.337 0.281 0.772 0.59 1.297 0.853 0.705 0.352 1.579 0.624 2.595 0.624s1.89-0.272 2.595-0.624c0.525-0.263 0.96-0.572 1.297-0.853 0.239-0.199 0.432-0.387 0.577-0.54 0.2-0.21 0.331-0.383 0.331-0.383 0.331-0.442 0.242-1.069-0.2-1.4s-1.069-0.242-1.4 0.2c-0.041 0.050-0.181 0.206-0.181 0.206-0.1 0.105-0.237 0.239-0.408 0.382-0.243 0.203-0.549 0.419-0.91 0.6-0.48 0.239-1.050 0.412-1.701 0.412s-1.221-0.173-1.701-0.413c-0.36-0.18-0.667-0.397-0.91-0.6-0.171-0.143-0.308-0.277-0.408-0.382-0.14-0.155-0.181-0.205-0.181-0.205-0.331-0.442-0.958-0.531-1.4-0.2s-0.531 0.958-0.2 1.4zM9 10c0.552 0 1-0.448 1-1s-0.448-1-1-1-1 0.448-1 1 0.448 1 1 1zM15 10c0.552 0 1-0.448 1-1s-0.448-1-1-1-1 0.448-1 1 0.448 1 1 1z"></path>
</symbol>
<symbol id="icon-user" viewBox="0 0 24 24">
<path d="M21 21v-2c0-1.38-0.561-2.632-1.464-3.536s-2.156-1.464-3.536-1.464h-8c-1.38 0-2.632 0.561-3.536 1.464s-1.464 2.156-1.464 3.536v2c0 0.552 0.448 1 1 1s1-0.448 1-1v-2c0-0.829 0.335-1.577 0.879-2.121s1.292-0.879 2.121-0.879h8c0.829 0 1.577 0.335 2.121 0.879s0.879 1.292 0.879 2.121v2c0 0.552 0.448 1 1 1s1-0.448 1-1zM17 7c0-1.38-0.561-2.632-1.464-3.536s-2.156-1.464-3.536-1.464-2.632 0.561-3.536 1.464-1.464 2.156-1.464 3.536 0.561 2.632 1.464 3.536 2.156 1.464 3.536 1.464 2.632-0.561 3.536-1.464 1.464-2.156 1.464-3.536zM15 7c0 0.829-0.335 1.577-0.879 2.121s-1.292 0.879-2.121 0.879-1.577-0.335-2.121-0.879-0.879-1.292-0.879-2.121 0.335-1.577 0.879-2.121 1.292-0.879 2.121-0.879 1.577 0.335 2.121 0.879 0.879 1.292 0.879 2.121z"></path>
</symbol>
<symbol id="icon-upload-cloud" viewBox="0 0 24 24">
<path d="M11 14.414v6.586c0 0.552 0.448 1 1 1s1-0.448 1-1v-6.586l2.293 2.293c0.391 0.391 1.024 0.391 1.414 0s0.391-1.024 0-1.414l-4-4c-0.092-0.092-0.202-0.166-0.324-0.217s-0.253-0.076-0.383-0.076c-0.256 0-0.512 0.098-0.707 0.293l-4 4c-0.391 0.391-0.391 1.024 0 1.414s1.024 0.391 1.414 0zM20.869 19.268c1.454-0.793 2.451-2.102 2.884-3.574s0.305-3.112-0.488-4.566c-0.679-1.245-1.737-2.155-2.959-2.663-0.724-0.301-1.505-0.46-2.299-0.465h-0.527c-0.725-2.057-2.144-3.708-3.917-4.752-1.983-1.168-4.415-1.581-6.821-0.959s-4.333 2.162-5.502 4.145-1.581 4.415-0.959 6.821c0.372 1.437 1.073 2.709 1.975 3.713 0.369 0.411 1.002 0.444 1.412 0.075s0.444-1.002 0.075-1.412c-0.688-0.765-1.235-1.75-1.526-2.877-0.484-1.872-0.164-3.761 0.746-5.305s2.407-2.74 4.279-3.224 3.761-0.164 5.305 0.746 2.74 2.407 3.224 4.279c0.116 0.435 0.506 0.75 0.969 0.75h1.253c0.536 0.004 1.061 0.111 1.545 0.312 0.815 0.339 1.517 0.943 1.97 1.773 0.529 0.97 0.615 2.061 0.325 3.044s-0.953 1.854-1.923 2.382c-0.485 0.264-0.664 0.872-0.399 1.357s0.872 0.664 1.357 0.399z"></path>
</symbol>
<symbol id="icon-users" viewBox="0 0 24 24">
<path d="M18 21v-2c0-1.38-0.561-2.632-1.464-3.536s-2.156-1.464-3.536-1.464h-8c-1.38 0-2.632 0.561-3.536 1.464s-1.464 2.156-1.464 3.536v2c0 0.552 0.448 1 1 1s1-0.448 1-1v-2c0-0.829 0.335-1.577 0.879-2.121s1.292-0.879 2.121-0.879h8c0.829 0 1.577 0.335 2.121 0.879s0.879 1.292 0.879 2.121v2c0 0.552 0.448 1 1 1s1-0.448 1-1zM14 7c0-1.38-0.561-2.632-1.464-3.536s-2.156-1.464-3.536-1.464-2.632 0.561-3.536 1.464-1.464 2.156-1.464 3.536 0.561 2.632 1.464 3.536 2.156 1.464 3.536 1.464 2.632-0.561 3.536-1.464 1.464-2.156 1.464-3.536zM12 7c0 0.829-0.335 1.577-0.879 2.121s-1.292 0.879-2.121 0.879-1.577-0.335-2.121-0.879-0.879-1.292-0.879-2.121 0.335-1.577 0.879-2.121 1.292-0.879 2.121-0.879 1.577 0.335 2.121 0.879 0.879 1.292 0.879 2.121zM24 21v-2c-0.001-1.245-0.457-2.385-1.215-3.261-0.652-0.753-1.528-1.311-2.529-1.576-0.534-0.141-1.081 0.177-1.222 0.711s0.177 1.081 0.711 1.222c0.607 0.161 1.136 0.498 1.528 0.952 0.454 0.526 0.726 1.206 0.727 1.952v2c0 0.552 0.448 1 1 1s1-0.448 1-1zM15.752 4.099c0.803 0.206 1.445 0.715 1.837 1.377s0.531 1.47 0.325 2.273c-0.176 0.688-0.575 1.256-1.105 1.652-0.314 0.235-0.675 0.409-1.063 0.511-0.534 0.14-0.854 0.687-0.713 1.221s0.687 0.854 1.221 0.713c0.637-0.167 1.232-0.455 1.752-0.844 0.884-0.66 1.552-1.613 1.845-2.758 0.342-1.337 0.11-2.689-0.542-3.788s-1.725-1.953-3.062-2.296c-0.535-0.137-1.080 0.186-1.217 0.721s0.186 1.080 0.721 1.217z"></path>
</symbol>
<symbol id="icon-google" viewBox="0 0 48 48">
<path fill="#FFC107" d="M43.611,20.083H42V20H24v8h11.303c-1.649,4.657-6.08,8-11.303,8c-6.627,0-12-5.373-12-12c0-6.627,5.373-12,12-12c3.059,0,5.842,1.154,7.961,3.039l5.657-5.657C34.046,6.053,29.268,4,24,4C12.955,4,4,12.955,4,24c0,11.045,8.955,20,20,20c11.045,0,20-8.955,20-20C44,22.659,43.862,21.35,43.611,20.083z"/><path fill="#FF3D00" d="M6.306,14.691l6.571,4.819C14.655,15.108,18.961,12,24,12c3.059,0,5.842,1.154,7.961,3.039l5.657-5.657C34.046,6.053,29.268,4,24,4C16.318,4,9.656,8.337,6.306,14.691z"/><path fill="#4CAF50" d="M24,44c5.166,0,9.86-1.977,13.409-5.192l-6.19-5.238C29.211,35.091,26.715,36,24,36c-5.202,0-9.619-3.317-11.283-7.946l-6.522,5.025C9.505,39.556,16.227,44,24,44z"/><path fill="#1976D2" d="M43.611,20.083H42V20H24v8h11.303c-0.792,2.237-2.231,4.166-4.087,5.571c0.001-0.001,0.002-0.001,0.003-0.002l6.19,5.238C36.971,39.205,44,34,44,24C44,22.659,43.862,21.35,43.611,20.083z"/>
</symbol>
<symbol id="icon-facebook" viewBox="0 0 48 48">
<path style=" stroke:none;fill-rule:nonzero;fill:rgb(25.882354%,40.392157%,69.803923%);fill-opacity:1;" d="M 29 3 C 23.476562 3 19 7.476562 19 13 L 19 18 L 13 18 L 13 26 L 19 26 L 19 45 L 27 45 L 27 26 L 34 26 L 35 18 L 27 18 L 27 14 C 27 11.789062 28.789062 10 31 10 L 35 10 L 35 3.320312 C 33.089844 3.125 30.921875 2.996094 29 3 Z M 29 3 "/>
</symbol>
<symbol id="icon-padlock" viewBox="0 0 870.3 870.3" >
<path d="M561.05,288.9c27.898,11.8,53.699,27.3,77.1,46.2V201.5c0-111.1-90.4-201.5-201.5-201.5h-3.1
		c-111,0-201.4,90.4-201.4,201.5v133.6c23.4-18.899,49.2-34.399,77.1-46.2c7.5-3.2,15.2-6.1,22.9-8.7v-78.7
		c0-56,45.5-101.5,101.5-101.5h3.1c56,0,101.5,45.5,101.5,101.5v78.8C545.849,282.8,553.55,285.7,561.05,288.9z"/>
	<path d="M151.75,586.9c0,156.5,126.9,283.399,283.4,283.399c156.5,0,283.401-126.8,283.401-283.399
		c0-76.9-30.701-146.7-80.4-197.801c-28-28.699-62-51.5-100-66.399c-31.9-12.5-66.701-19.3-103-19.3c-36.3,0-71.1,6.8-103,19.3
		c-38,14.8-72,37.6-100,66.399C182.35,440.2,151.75,510,151.75,586.9z M362.149,529.7c1-38.7,32.5-70.2,71.2-71.101
		c41.099-1,74.8,32.101,74.8,73c0,4.301-0.4,8.5-1.1,12.5c-3.602,20.7-15.9,38.5-33.102,49.301c-7.1,4.5-10.699,12.899-8.898,21
		L486.75,717.3c1.301,6.2-3.4,12.101-9.801,12.101H393.35c-6.4,0-11.101-5.801-9.8-12.101L405.249,614.4
		c1.7-8.2-1.8-16.601-8.899-21.101c-17.2-10.8-29.5-28.5-33.101-49.3C362.449,539.4,362.05,534.6,362.149,529.7z"/>
</symbol>
<symbol id="arrow" viewBox="0 0 512.002 512.002" >
<path d="M388.425,241.951L151.609,5.79c-7.759-7.733-20.321-7.72-28.067,0.04c-7.74,7.759-7.72,20.328,0.04,28.067l222.72,222.105
			L123.574,478.106c-7.759,7.74-7.779,20.301-0.04,28.061c3.883,3.89,8.97,5.835,14.057,5.835c5.074,0,10.141-1.932,14.017-5.795
			l236.817-236.155c3.737-3.718,5.834-8.778,5.834-14.05S392.156,245.676,388.425,241.951z"/>
</symbol>
<symbol id="icon-warning" viewBox="0 0 20 20">
  <path d="M19.64 16.36L11.53 2.3A1.85 1.85 0 0 0 10 1.21 1.85 1.85 0 0 0 8.48 2.3L.36 16.36C-.48 17.81.21 19 1.88 19h16.24c1.67 0 2.36-1.19 1.52-2.64zM11 16H9v-2h2zm0-4H9V6h2z"/>
</symbol>
<symbol id="icon-mail" viewBox="0 0 512 512">
<path d="M467,61H45C20.218,61,0,81.196,0,106v300c0,24.72,20.128,45,45,45h422c24.72,0,45-20.128,45-45V106
			C512,81.28,491.872,61,467,61z M460.786,91L256.954,294.833L51.359,91H460.786z M30,399.788V112.069l144.479,143.24L30,399.788z
			 M51.213,421l144.57-144.57l50.657,50.222c5.864,5.814,15.327,5.795,21.167-0.046L317,277.213L460.787,421H51.213z M482,399.787
			L338.213,256L482,112.212V399.787z"/>
</symbol>
<symbol id="icon-chef" width="48.846" height="48.846" viewBox="0 0 48.846 48.846">
  <g id="Group_52" data-name="Group 52">
    <g id="Group_51" data-name="Group 51">
      <path id="Path_32" data-name="Path 32" d="M108.886,214.443a1.11,1.11,0,1,0-2.22,0c0,2.915,3.215,6.918,3.582,7.365a1.111,1.111,0,1,0,1.717-1.409C110.775,218.949,108.886,216.05,108.886,214.443Z" transform="translate(-95.565 -191.13)" fill="#fa9400"/>
      <path id="Path_33" data-name="Path 33" d="M313.777,213.333a1.11,1.11,0,0,0-1.11,1.11c0,1.6-1.889,4.5-3.079,5.957a1.11,1.11,0,0,0,1.717,1.408c.366-.448,3.582-4.45,3.582-7.365A1.11,1.11,0,0,0,313.777,213.333Z" transform="translate(-277.143 -191.13)" fill="#fa9400"/>
      <path id="Path_34" data-name="Path 34" d="M225.11,213.333a1.11,1.11,0,0,0-1.11,1.11V221.1a1.11,1.11,0,1,0,2.22,0v-6.661A1.11,1.11,0,0,0,225.11,213.333Z" transform="translate(-200.687 -191.13)" fill="#fa9400"/>
      <path id="Path_35" data-name="Path 35" d="M36.634,4.441a11.627,11.627,0,0,0-2.106.225,13.278,13.278,0,0,0-20.211,0,11.639,11.639,0,0,0-2.106-.225A12.207,12.207,0,0,0,6.687,27.534L6.665,44.311a4.53,4.53,0,0,0,4.529,4.535H37.656a4.534,4.534,0,0,0,4.529-4.529v-16.8A12.2,12.2,0,0,0,36.634,4.441Zm3.33,39.876a2.312,2.312,0,0,1-2.309,2.309H11.194a2.31,2.31,0,0,1-2.309-2.312l.006-4.349H39.965Zm.687-18.526a1,1,0,0,0-.166.086,1.111,1.111,0,0,0-.51.779,1.073,1.073,0,0,0-.012.186v10.9H8.894l.014-10.888a1.143,1.143,0,0,0-.011-.182,1.113,1.113,0,0,0-.176-.46,1.1,1.1,0,0,0-.33-.322,1.162,1.162,0,0,0-.175-.09A9.987,9.987,0,0,1,12.211,6.661c.215,0,.443.026.666.044A13.225,13.225,0,0,0,11.1,13.322a1.11,1.11,0,0,0,2.22,0,11.1,11.1,0,1,1,22.2,0,1.11,1.11,0,0,0,2.22,0A13.225,13.225,0,0,0,35.969,6.7c.223-.018.45-.044.666-.044A9.985,9.985,0,0,1,40.652,25.79Z" fill="#fa9400"/>
    </g>
  </g></symbol>
<symbol id="icon-dinner" width="70.405" height="54.103" viewBox="0 0 70.405 54.103">
<g id="wedding-dinner" transform="translate(0 -59.277)">
    <g id="Group_39" data-name="Group 39" transform="translate(0 65.97)">
      <g id="Group_38" data-name="Group 38" transform="translate(0 0)">
        <path id="Path_25" data-name="Path 25" d="M69.294,148.687H67.421a32.2,32.2,0,0,0-31.041-31.1l3.293-3.293a3.718,3.718,0,0,0-4.47-5.858,3.717,3.717,0,0,0-4.47,5.858l3.293,3.293a32.018,32.018,0,0,0-14.009,3.77,1.112,1.112,0,0,0,1.049,1.961,29.813,29.813,0,0,1,6.729-2.61,30.182,30.182,0,0,1,7.231-.919,1.116,1.116,0,0,0,.175.015,1.091,1.091,0,0,0,.18-.016,29.975,29.975,0,0,1,29.814,28.9H5.21A30.028,30.028,0,0,1,17.444,125.6a1.112,1.112,0,0,0-.658-2.007,1.094,1.094,0,0,0-.658.216A32.381,32.381,0,0,0,6.553,135a32.028,32.028,0,0,0-3.568,13.685H1.112A1.112,1.112,0,0,0,0,149.8a5.565,5.565,0,0,0,5.558,5.558H64.847a5.565,5.565,0,0,0,5.558-5.558A1.112,1.112,0,0,0,69.294,148.687ZM35.2,115.617l-2.9-2.9a1.493,1.493,0,0,1,2.112-2.111,1.111,1.111,0,0,0,1.572,0,1.493,1.493,0,1,1,2.112,2.112Zm29.644,37.517H5.558a3.34,3.34,0,0,1-3.144-2.223H67.991A3.34,3.34,0,0,1,64.847,153.134Z" transform="translate(0 -107.947)" fill="#fa9400"/>
      </g>
    </g>
    <g id="Group_41" data-name="Group 41" transform="translate(2.468 59.278)">
      <g id="Group_40" data-name="Group 40">
        <path id="Path_26" data-name="Path 26" d="M21.827,69.982c-3.7-3.7-.052-8.713.1-8.924a1.112,1.112,0,0,0-1.78-1.332A12.68,12.68,0,0,0,18.3,63.62a7.762,7.762,0,0,0,1.954,7.934c3.7,3.7.052,8.713-.1,8.923a1.112,1.112,0,1,0,1.779,1.334,12.676,12.676,0,0,0,1.851-3.895A7.762,7.762,0,0,0,21.827,69.982Z" transform="translate(-17.951 -59.281)" fill="#fa9400"/>
      </g>
    </g>
    <g id="Group_43" data-name="Group 43" transform="translate(14.989 59.277)">
      <g id="Group_42" data-name="Group 42" transform="translate(0 0)">
        <path id="Path_27" data-name="Path 27" d="M112.216,65.531a2.7,2.7,0,0,1-.862-2.879,4.146,4.146,0,0,1,.862-1.478,1.112,1.112,0,0,0-1.572-1.572,6.278,6.278,0,0,0-1.38,2.287,4.922,4.922,0,0,0,1.38,5.214A2.727,2.727,0,0,1,111.5,70a4.23,4.23,0,0,1-.87,1.5,1.112,1.112,0,0,0,1.586,1.558,6.36,6.36,0,0,0,1.376-2.3A4.947,4.947,0,0,0,112.216,65.531Z" transform="translate(-109.003 -59.277)" fill="#fa9400"/>
      </g>
    </g>
    <g id="Group_45" data-name="Group 45" transform="translate(61.757 59.278)">
      <g id="Group_44" data-name="Group 44" transform="translate(0 0)">
        <path id="Path_28" data-name="Path 28" d="M452.986,71.556a7.762,7.762,0,0,0,1.954-7.934,12.674,12.674,0,0,0-1.851-3.895,1.112,1.112,0,0,0-1.78,1.332c.157.211,3.806,5.223.1,8.924a7.762,7.762,0,0,0-1.954,7.934,12.673,12.673,0,0,0,1.851,3.895,1.112,1.112,0,0,0,1.78-1.332C452.934,80.269,449.285,75.257,452.986,71.556Z" transform="translate(-449.111 -59.283)" fill="#fa9400"/>
      </g>
    </g>
    <g id="Group_47" data-name="Group 47" transform="translate(50.563 59.278)">
      <g id="Group_46" data-name="Group 46">
        <path id="Path_29" data-name="Path 29" d="M370.051,70.011a2.727,2.727,0,0,1,.861-2.9,4.921,4.921,0,0,0,1.38-5.214,6.282,6.282,0,0,0-1.38-2.287,1.112,1.112,0,0,0-1.577,1.568,4.145,4.145,0,0,1,.867,1.482,2.705,2.705,0,0,1-.862,2.879,4.947,4.947,0,0,0-1.381,5.23,6.361,6.361,0,0,0,1.376,2.3,1.109,1.109,0,0,0,1.565.012,1.115,1.115,0,0,0,.022-1.57A4.228,4.228,0,0,1,370.051,70.011Z" transform="translate(-367.7 -59.285)" fill="#fa9400"/>
      </g>
    </g>
  </g></symbol>
<symbol id="icon-clock" viewBox="0 0 15.386 17.95">
  <path id="ic_timer_24px" d="M13.257,1H8.129V2.71h5.129ZM9.838,12.112h1.71V6.983H9.838ZM16.7,6.462l1.214-1.214A9.444,9.444,0,0,0,16.71,4.043L15.5,5.257A7.692,7.692,0,1,0,16.7,6.462ZM10.693,17.24a5.983,5.983,0,1,1,5.983-5.983A5.979,5.979,0,0,1,10.693,17.24Z" transform="translate(-3 -1)" fill="#f9efef"/>

</symbol>
<symbol id="icon-ingredient" viewBox="0 0 512 512">
<g><path d="m489.859 77.88c9.261-32.411-23.172-65.085-55.764-55.768-23.433-39.639-83.821-22.312-83.821 22.887v17.348c-29.321-10.192-59.881 11.676-59.881 42.537v45.501c-8.097-2.796-16.43-4.598-24.841-5.275-36.827-2.972-60.866 13.205-85.017 37.788-186.002 189.318-180.778 309.888-180.459 314.993.475 7.594 6.131 14.109 16.984 14.109 20.471 0 140.009-8.304 319.688-187.995 29.836-29.836 37.062-67.249 24.895-102.413h45.454c30.914-.001 52.711-30.621 42.533-59.884h17.347c45.093 0 62.641-60.32 22.882-83.828zm-174.324 224.911c-21.885 21.887-42.768 41.042-62.535 57.82l-8.339-8.34c-5.856-5.859-15.354-5.859-21.213 0-5.857 5.858-5.858 15.355 0 21.214l6.242 6.243c-53.654 42.454-130.46 91.494-198.469 101.062 5.898-41.74 27.33-87.173 48.848-123.275l26.623 26.624c5.859 5.859 15.355 5.858 21.213 0s5.858-15.356 0-21.214l-31.416-31.418c10.203-15.318 22.066-31.732 35.843-49.142l27.411 27.413c2.929 2.929 6.768 4.394 10.606 4.394 13.244 0 20.083-16.132 10.606-25.608l-29.506-29.508c12.022-14.163 25.265-28.899 39.859-44.168l49.935 49.937c5.858 5.859 15.355 5.858 21.213 0s5.858-15.356 0-21.214l-50.065-50.067c67.192-61.004 169.41 42.979 103.144 109.247zm151.441-171.085h-56.616c-7.971 0-14.549 6.234-14.979 14.193-.429 7.959 5.441 14.865 13.366 15.722 7.627.824 13.378 7.247 13.378 14.937 0 8.289-6.743 15.031-15.03 15.032l-61.387-.001c-6.986-9.431-15.259-17.86-25.315-25.298v-61.408c0-8.289 6.742-15.031 15.03-15.031 7.69 0 14.112 5.751 14.938 13.379.857 7.925 7.78 13.807 15.721 13.366 7.959-.43 14.192-7.008 14.192-14.979v-56.619c0-8.289 6.742-15.031 15.03-15.031 8.21 0 14.806 6.428 15.016 14.635.331 12.971 15.927 19.426 25.327 10.491 9.96-9.46 19.078-1.321 20.806.406 1.731 1.732 9.889 10.874.429 20.83-8.936 9.409-2.473 24.998 10.491 25.329 8.206.21 14.634 6.806 14.634 15.017 0 8.288-6.743 15.03-15.031 15.03z"/></g>
</symbol>
<symbol id="icon-servings" viewBox="0 0 17.535 17.535">
 <path id="ic_perm_identity_24px" d="M12.768,6.082a2.3,2.3,0,1,1-2.3,2.3,2.3,2.3,0,0,1,2.3-2.3m0,9.863c3.255,0,6.685,1.6,6.685,2.3v1.206H6.082V18.247c0-.7,3.43-2.3,6.685-2.3M12.768,4a4.384,4.384,0,1,0,4.384,4.384A4.383,4.383,0,0,0,12.768,4Zm0,9.863C9.841,13.863,4,15.332,4,18.247v3.288H21.535V18.247C21.535,15.332,15.694,13.863,12.768,13.863Z" transform="translate(-4 -4)"/>
</symbol>
<symbol id="icon-breakfast" width="87.939" height="54.103" viewBox="0 0 87.939 54.103">
 <g id="sandwich" transform="translate(0 -98.501)">
    <g id="Group_50" data-name="Group 50" transform="translate(0 98.501)">
      <path id="Path_31" data-name="Path 31" d="M85.994,119.331a10.769,10.769,0,0,0,1.2-2.2,9.827,9.827,0,0,0-2.5-11.053A27.807,27.807,0,0,0,65.3,98.5a28.715,28.715,0,0,0-10.911,2.115,29.21,29.21,0,0,0-21.334-.193A28.788,28.788,0,0,0,22.635,98.5,27.807,27.807,0,0,0,3.251,106.08a9.828,9.828,0,0,0-2.5,11.053,10.773,10.773,0,0,0,1.2,2.2A5.07,5.07,0,0,0,.3,122.924a4.932,4.932,0,0,0,1.4,3.331,3.1,3.1,0,0,0-.79,2.4,3.178,3.178,0,0,0,1.424,2.313l.018.012a8.536,8.536,0,0,0,3.46,1.264,10.628,10.628,0,0,0,4.088-.188,4.967,4.967,0,0,1,2.21-.157,1.673,1.673,0,0,1,1.036.807,6.2,6.2,0,0,0,1.183,1.331c.029.025.059.05.09.075l.139.128c.094.086.189.169.289.251a7.084,7.084,0,0,0,3.349,1.527,6.8,6.8,0,0,0,5.567-1.6,1.458,1.458,0,0,1,1.138-.373,1.593,1.593,0,0,1,1.09.639,7.123,7.123,0,0,0,5.112,2.773,6.95,6.95,0,0,0,5.395-2.065,1.491,1.491,0,0,1,1.119-.466,1.521,1.521,0,0,1,1.1.545,7.042,7.042,0,0,0,5.258,2.414h0a7.042,7.042,0,0,0,5.257-2.413,1.522,1.522,0,0,1,1.1-.545,1.49,1.49,0,0,1,1.118.466,6.949,6.949,0,0,0,5.395,2.065,7.122,7.122,0,0,0,5.111-2.771,1.6,1.6,0,0,1,1.089-.64,1.465,1.465,0,0,1,1.139.372,6.809,6.809,0,0,0,5.571,1.6,7.081,7.081,0,0,0,3.348-1.527c.1-.081.194-.164.3-.26l.129-.118.088-.074a6.177,6.177,0,0,0,1.178-1.324,1.682,1.682,0,0,1,1.042-.815,4.948,4.948,0,0,1,2.2.155,10.636,10.636,0,0,0,4.095.19,9.36,9.36,0,0,0,2.245-.617,2.979,2.979,0,0,1,.678,1.9v1.928a3.009,3.009,0,0,1-3,3.006H5.88a3.009,3.009,0,0,1-3-3.006v-1.119a1.288,1.288,0,1,0-2.576,0v1.119a5.587,5.587,0,0,0,5.58,5.582H79.257a6.234,6.234,0,0,1-.626,5.425,7.839,7.839,0,0,1-6.786,3.566H16.093a7.465,7.465,0,0,1-7.667-5.8,1.288,1.288,0,1,0-2.53.485,9.512,9.512,0,0,0,3.378,5.556,10.666,10.666,0,0,0,6.819,2.34H71.845a10.4,10.4,0,0,0,8.976-4.786,8.847,8.847,0,0,0,1.123-6.781h.115a5.587,5.587,0,0,0,5.58-5.582v-1.928a5.605,5.605,0,0,0-1.162-3.4,3.105,3.105,0,0,0-.23-3.875,4.93,4.93,0,0,0,1.392-3.325A5.077,5.077,0,0,0,85.994,119.331ZM6.185,129.691a5.94,5.94,0,0,1-2.4-.856l-.025-.016a.606.606,0,0,1-.289-.435.523.523,0,0,1,.164-.43l.019-.019c.019-.019.036-.04.054-.06a13.283,13.283,0,0,0,1.253.675,18.675,18.675,0,0,0,3.331,1.174A8.278,8.278,0,0,1,6.185,129.691Zm-3.31-6.768a2.531,2.531,0,0,1,.8-1.674,12.218,12.218,0,0,0,8.1,2.962H26.6c-1.389,1.951-5.781,3.733-11.629,3.733C7.843,127.945,2.875,125.3,2.875,122.924Zm69.77,8.379a3.578,3.578,0,0,1-.7.775l-.015.013-.03.025c-.049.04-.1.08-.14.121l-.105.1c-.061.056-.124.111-.187.162a4.5,4.5,0,0,1-2.124.973,4.185,4.185,0,0,1-3.467-1,4.037,4.037,0,0,0-3.108-.988,4.17,4.17,0,0,0-2.842,1.619,4.487,4.487,0,0,1-3.255,1.783,4.32,4.32,0,0,1-3.392-1.312,4.05,4.05,0,0,0-3.028-1.224,4.092,4.092,0,0,0-2.949,1.414,4.407,4.407,0,0,1-3.328,1.543h0a4.408,4.408,0,0,1-3.328-1.543,4.09,4.09,0,0,0-2.949-1.414,4.044,4.044,0,0,0-3.029,1.225,4.312,4.312,0,0,1-3.392,1.311,4.486,4.486,0,0,1-3.255-1.785,4.17,4.17,0,0,0-2.843-1.618,4.034,4.034,0,0,0-3.107.989,4.181,4.181,0,0,1-3.463,1,4.432,4.432,0,0,1-1.74-.686,4.508,4.508,0,0,1-.386-.286c-.064-.053-.127-.108-.177-.153l-.122-.115c-.039-.036-.086-.076-.134-.115l-.03-.024L16,132.079a3.6,3.6,0,0,1-.7-.783,5.082,5.082,0,0,0-.628-.778c.1,0,.2,0,.3,0a24.084,24.084,0,0,0,10.013-1.971c2.408-1.135,3.946-2.645,4.463-4.338h.047c.517,1.694,2.055,3.2,4.463,4.338a24.088,24.088,0,0,0,10.013,1.971,24.086,24.086,0,0,0,10.013-1.971c2.408-1.135,3.946-2.645,4.463-4.338h.047c.517,1.694,2.055,3.2,4.463,4.338a24.086,24.086,0,0,0,10.013,1.971c.1,0,.2,0,.307,0A5.254,5.254,0,0,0,72.645,131.3ZM32.34,124.212H55.6c-1.389,1.951-5.781,3.733-11.63,3.733S33.729,126.163,32.34,124.212Zm52.13,4.171a.633.633,0,0,1-.305.455c-.065.044-.133.085-.2.126l-.009.006a6.2,6.2,0,0,1-2.187.721,8.249,8.249,0,0,1-2.112.032,18.667,18.667,0,0,0,3.327-1.173,13.21,13.21,0,0,0,1.261-.68c.018.021.035.041.054.061A.548.548,0,0,1,84.469,128.383Zm-11.5-.438c-5.849,0-10.24-1.782-11.629-3.733H76.167a12.217,12.217,0,0,0,8.1-2.962,2.537,2.537,0,0,1,.8,1.674C85.064,125.3,80.1,127.945,72.967,127.945ZM84.8,116.174a9.094,9.094,0,0,1-8.633,5.462h-64.4a9.093,9.093,0,0,1-8.633-5.462,7.327,7.327,0,0,1,1.894-8.233,25.244,25.244,0,0,1,17.6-6.864,26.48,26.48,0,0,1,7.013.933,26.435,26.435,0,0,0-5.551,4.07,10.667,10.667,0,0,0-2.413,3.4,1.288,1.288,0,1,0,2.357,1.04,8.1,8.1,0,0,1,1.838-2.576A24.247,24.247,0,0,1,33.541,103h0a26.684,26.684,0,0,1,17.6-.806,26.421,26.421,0,0,0-5.219,3.884,9.8,9.8,0,0,0-2.066,3.258,1.288,1.288,0,1,0,2.371,1.007,7.458,7.458,0,0,1,1.476-2.4,24.21,24.21,0,0,1,7.2-4.744h0a26.12,26.12,0,0,1,10.4-2.119,25.244,25.244,0,0,1,17.6,6.864A7.326,7.326,0,0,1,84.8,116.174Z" transform="translate(0 -98.501)" fill="#fa9400"/>
    </g>
  </g>
</symbol>
<symbol id="icon-dessert" width="43.318" height="54.103" viewBox="0 0 43.318 54.103">
 <g id="cupcake" transform="translate(-51.031 0.001)">
    <path id="Path_23" data-name="Path 23" d="M93.215,30.674a5.681,5.681,0,0,0-1.56-1.158,10.843,10.843,0,0,0-5.971-11.133,5.271,5.271,0,0,0,.693-4.489,5.942,5.942,0,0,0-3.629-3.747c.018-1.8-.828-4.52-4.775-7.6C75.141.346,73.56-.273,72.515.417c-.381.252-.964.886-.587,2.313A3.189,3.189,0,0,1,71.946,4.5a6.143,6.143,0,0,1-2.031,2.89,5.245,5.245,0,0,0-.6-1.282,5.221,5.221,0,0,0-6.135-2.09A2.585,2.585,0,0,1,63.528,1.6,1.057,1.057,0,1,0,61.712.516a4.711,4.711,0,0,0-.362,4.62,5.211,5.211,0,0,0,.228,7.789c-1.024,1.447-1.554,3.442-1.1,6.411-.267.086-.52.172-.757.259a9.568,9.568,0,0,0-5,3.867,7.945,7.945,0,0,0-.883,6,5.737,5.737,0,0,0-1.669,1.215,4,4,0,0,0-.792,4.416l5.68,13.7c.878,2.115,2.206,5.31,5.634,5.31H82.695c3.428,0,4.756-3.2,5.634-5.311l5.68-13.7a4,4,0,0,0-.794-4.417ZM73.951,5.166a5.206,5.206,0,0,0,.087-2.7,15.266,15.266,0,0,1,2.636,1.752c2.669,2.079,4.037,4.16,3.958,6.019a4.963,4.963,0,0,1-2.556,3.7c-2.629,1.708-7.577,2.885-11.943,3.922-1.265.3-2.494.593-3.609.886-.353-2.6.2-4.122,1.3-5.227.17-.136.318-.3.489-.44s.335-.258.51-.376a13.158,13.158,0,0,1,1.2-.714c.9-.483,1.839-.907,2.747-1.384a11.744,11.744,0,0,0,3.814-2.914,8.171,8.171,0,0,0,1.367-2.528Zm-8.365.73a3.105,3.105,0,0,1,2.433,2.718c-.485.261-.99.509-1.5.76A18.886,18.886,0,0,0,63.047,11.4a3.1,3.1,0,0,1,2.538-5.5ZM60.446,21.58a63.116,63.116,0,0,1,6.176-1.661c4.532-1.077,9.669-2.3,12.605-4.206a7.791,7.791,0,0,0,3.086-3.455,3.828,3.828,0,0,1,2.043,2.262,3.439,3.439,0,0,1-1.1,3.519l0,0,0,0c-2.211,2.235-6.28,4.086-9.551,5.574a1.057,1.057,0,0,0,.875,1.924c3.2-1.455,7.127-3.242,9.657-5.516,3.19,1.5,5.811,4.807,5.381,8.8a7.387,7.387,0,0,0-3.637.217,5.808,5.808,0,0,0-3.057,2.289,6.14,6.14,0,0,0-10.232-.088,6.137,6.137,0,0,0-10.23.088,5.809,5.809,0,0,0-3.058-2.29,7.37,7.37,0,0,0-3.545-.233c-.945-4.785,3.22-6.73,4.59-7.232Zm2.24,30.409c-1.706,0-2.578-1.35-3.682-4.007l-5.68-13.7a1.9,1.9,0,0,1,.387-2.167A4.57,4.57,0,0,1,57.155,30.8a5.95,5.95,0,0,1,1.578.245,4.021,4.021,0,0,1,2.734,3.734c0,.026,3.928,17.2,3.928,17.2H62.686Zm15.13,0h-4.07V48.6a1.057,1.057,0,1,0-2.113,0v3.393h-4.07L63.577,34.575a4.028,4.028,0,0,1,8.055.113v4.447a1.057,1.057,0,0,0,2.113,0V34.687a4.03,4.03,0,0,1,8.058-.113ZM92.057,34.282l-5.679,13.7c-1.1,2.658-1.977,4.008-3.682,4.008H79.984s3.928-17.178,3.931-17.2a4.021,4.021,0,0,1,2.733-3.734,5.039,5.039,0,0,1,3.523.1,3.944,3.944,0,0,1,1.5.961A1.9,1.9,0,0,1,92.057,34.282Z" fill="#fa9400"/>
    <path id="Path_24" data-name="Path 24" d="M247.048,405.122a1.057,1.057,0,0,0-1.057,1.057v.006a1.057,1.057,0,1,0,1.057-1.063Z" transform="translate(-174.359 -362.314)" fill="#fa9400"/>
  </g>
</symbol>
</defs>
</svg>